<svg xmlns="http://www.w3.org/2000/svg" width="118" height="43">
    <path
        fill="#333"
        fill-rule="evenodd"
        d="M.48.97h8.8v32.2h12.08V42H.48V.97zm26.7 14.22h8.12v12.84c0 1.86.47 3.4 1.42 4.64.95 1.23 2.12 1.85 3.5 1.85 1.5 0 2.74-.6 3.75-1.8 1-1.2 1.5-2.7 1.5-4.5V15.18h8.14v15.6c0 3.33-1.24 6.1-3.8 8.34-2.5 2.24-5.65 3.36-9.42 3.36-4 0-7.2-1.12-9.6-3.38-2.4-2.25-3.6-5.23-3.6-8.96V15.2zM61 .25h7.93V25.6l7.94-10.5h9.58l-8.9 11.86L87.23 42h-9l-9.28-14.22V42h-7.93V.28zM109.7 42v-4.6h-.12c-1.25 1.8-2.5 3.1-3.78 3.9-1.27.8-2.85 1.2-4.72 1.2-3.15 0-5.82-1.35-8.03-4.06-2.2-2.7-3.32-6-3.32-9.88 0-3.83 1.18-7.12 3.54-9.86 2.35-2.74 5.14-4.1 8.37-4.1 1.54 0 2.93.34 4.16 1.03 1.23.68 2.53 1.78 3.9 3.28v-3.7h8V42h-8zm-5.87-19.4c-1.6 0-2.9.62-3.97 1.88-1.06 1.26-1.6 2.85-1.6 4.77 0 1.8.5 3.23 1.52 4.33 1 1.1 2.34 1.64 4 1.64 1.57 0 2.92-.63 4.05-1.9 1.12-1.25 1.7-2.78 1.7-4.57 0-1.67-.58-3.1-1.7-4.33-1.13-1.22-2.46-1.83-4-1.83z"
    />
</svg>